<?xml version="1.0" encoding="UTF-8"?>
<svg xmlns:inkscape="http://www.inkscape.org/namespaces/inkscape" width="841.92pt" viewBox="0 0 841.92 473.519" version="1.1" xmlns="http://www.w3.org/2000/svg" height="473.519pt" xmlns:xlink="http://www.w3.org/1999/xlink">
 <title>Microsoft PowerPoint - flag - ã³ãã¼ - ã³ãã¼</title>
 <defs/>
 <g inkscape:label="背景" inkscape:groupmode="layer" id="背景">
  <path style="fill:#212934; fill-rule:nonzero;stroke:none;" transform="translate(0, 0)" d="M0 0 L841.92 0 L841.92 473.52 L0 473.52 L0 0 Z"/>
  <path style="fill:#212934; fill-rule:nonzero;stroke:none;" transform="translate(0, 0)" d="M841.92 7.10543e-15 L841.92 473.52 L0 473.52 L0 0 L841.92 7.10543e-15 Z M0.36 473.52 L0 473.16 L841.92 473.16 L841.56 473.52 L841.44 473.52 L841.44 7.10543e-15 L841.92 0.48 L0 0.48 L0.48 7.10543e-15 L0.48 473.52 L0.36 473.52 Z"/>
  <path style="fill:#ffff00; fill-rule:nonzero;stroke:none;" transform="translate(0, 159.24)" d="M0 0 L841.92 0 L841.92 151.92 L0 151.92 L0 0 Z"/>
  <path style="fill:#ffff00; fill-rule:nonzero;stroke:none;" transform="translate(160.92, 0)" d="M0 0 L158.04 0 L158.04 473.52 L0 473.52 L0 0 Z"/>
  <path style="fill:#ffffff; fill-rule:nonzero;stroke:none;" transform="translate(0, 190.08)" d="M0 0 L841.92 0 L841.92 93.48 L0 93.48 L0 0 Z"/>
  <g style="fill:none; stroke:none" transform="translate(423.194, 211.108) scale(1, 1)" id="グループ1">
   <path style="fill:#212934; fill-rule:nonzero;stroke:none;" transform="translate(0, 1.15312)" d="M11.8219 15.9469 C12.2094 16.7781 12.4969 17.6437 12.6844 18.5437 L13.5562 18.5437 C14.5812 16.9437 15.4781 15.4687 16.2469 14.1187 C15.2844 13.2875 14.1937 12.5187 12.975 11.8125 L13.8375 10.1812 L14.6062 10.5656 C15.375 8.90312 15.9219 7.4625 16.2469 6.24375 L11.3437 6.24375 C10.575 8.1625 9.67812 9.95625 8.65312 11.625 C9.03437 11.8812 9.45 12.1687 9.9 12.4875 C10.475 11.4625 11.0187 10.3406 11.5312 9.12187 L13.2656 10.0875 C13.7156 10.4687 13.6187 10.6594 12.975 10.6594 C11.5 13.3531 9.9625 15.9812 8.3625 18.5437 C9.13125 18.4812 9.96562 18.3531 10.8656 18.1594 C10.7344 17.6469 10.5406 17.0687 10.2844 16.425 L11.8219 15.9469 Z M20.475 10.4719 C19.2562 12.6469 17.6219 15.2719 15.5719 18.3469 C16.6594 18.2844 17.8437 18.1562 19.125 17.9625 C18.9312 17.3875 18.675 16.7469 18.3562 16.0406 L19.8937 15.6562 C20.725 17.325 21.3656 18.9594 21.8156 20.5594 L19.9875 21.0469 C19.8 20.3406 19.6406 19.825 19.5094 19.5 C17.0781 19.825 14.9656 20.0844 13.1719 20.2781 L13.3594 21.0469 L11.5312 21.4312 C11.4062 20.725 11.3125 20.1469 11.25 19.6969 C9.51875 20.0156 7.725 20.3031 5.86875 20.5594 C5.675 20.9469 5.48125 20.9812 5.2875 20.6625 L4.80937 18.8344 C5.25937 18.8344 5.70625 18.8 6.15 18.7312 C7.1125 17.3875 8.04375 15.9156 8.94375 14.3156 C7.91875 13.4156 6.73125 12.55 5.38125 11.7187 L6.44062 10.0875 L7.30312 10.6594 C8.14062 9.12187 8.75 7.65 9.13125 6.24375 L6.05625 6.24375 L6.05625 4.70625 L14.2219 4.70625 L15.8625 0 L17.9719 0.8625 C18.2281 1.11875 18.1312 1.27812 17.6812 1.34062 L16.05 4.70625 L21.4312 4.70625 L21.4312 6.24375 L18.45 6.24375 C17.9375 7.71875 17.1062 9.44687 15.9562 11.4281 C16.3375 11.6844 16.7531 11.975 17.2031 12.3 C17.7781 11.275 18.3562 10.1531 18.9375 8.93437 L20.7562 9.99375 C21.0125 10.25 20.9187 10.4094 20.475 10.4719 Z M4.71562 13.4531 C3.87812 16.2031 3.04375 18.5719 2.2125 20.5594 C2.34375 21.0094 2.24687 21.2031 1.92187 21.1406 L0 19.6969 C1.21875 17.4531 2.2125 15.0812 2.98125 12.5812 L4.71562 13.4531 Z M10.2844 0.28125 C11.0531 1.18125 11.6937 2.04687 12.2062 2.87812 L10.2844 4.125 C9.83437 3.16875 9.25937 2.24062 8.55937 1.34062 L10.2844 0.28125 Z M4.71562 4.8 C3.81562 3.8375 2.82187 3.00625 1.73437 2.30625 L2.98125 0.665625 C4.1375 1.24687 5.1625 2.01562 6.05625 2.97187 L4.71562 4.8 Z M3.84375 10.6594 C3.075 9.82812 1.9875 8.99687 0.58125 8.16562 L1.92187 6.43125 C3.33437 7.2 4.425 8.00312 5.19375 8.84062 L3.84375 10.6594 Z"/>
   <path style="fill:#212934; fill-rule:nonzero;stroke:none;" transform="translate(25.0875, 0.8625)" d="M6.04687 2.01562 L10.3781 2.01562 L10.1812 6.24375 C10.1187 7.33125 9.575 7.875 8.55 7.875 L6.3375 7.875 L6.3375 6.3375 L8.07187 6.3375 C8.39062 6.3375 8.55 6.17812 8.55 5.85937 L8.64375 3.55312 L5.95312 3.55312 C5.95312 6.05312 4.19062 7.9125 0.665625 9.13125 L0 7.39687 C2.75 6.62812 4.15937 5.34687 4.22812 3.55312 L0.76875 3.55312 L0.76875 2.01562 L4.41562 2.01562 L4.41562 0 L5.95312 0 C6.46562 0.0625 6.49687 0.253125 6.04687 0.571875 L6.04687 2.01562 Z M15.6562 15.7594 L5.475 15.7594 L5.475 17.0062 L15.6562 17.0062 L15.6562 15.7594 Z M17.2969 18.5437 L14.3156 18.5437 C16.1719 19.375 18.2531 19.9219 20.5594 20.1844 L20.0812 22.1062 C16.75 21.5937 14.25 20.7906 12.5812 19.6969 L13.4531 18.5437 L7.58437 18.5437 L8.35312 19.6031 C8.67812 20.0531 8.58437 20.2469 8.07187 20.1844 C5.89062 21.2719 3.55 21.9125 1.05 22.1062 L0.571875 20.1844 C2.94062 20.1156 5.05625 19.5687 6.91875 18.5437 L3.84375 18.5437 L3.84375 8.64375 L17.2969 8.64375 L17.2969 18.5437 Z M15.6562 11.4375 L15.6562 10.1812 L5.475 10.1812 L5.475 11.4375 L15.6562 11.4375 Z M15.6562 12.975 L5.475 12.975 L5.475 14.2219 L15.6562 14.2219 L15.6562 12.975 Z M12.0094 1.63125 L19.9875 1.63125 L19.9875 7.6875 L18.3469 7.6875 L18.3469 7.30312 L13.6406 7.30312 L13.6406 7.875 L12.0094 7.875 L12.0094 1.63125 Z M18.3469 3.16875 L13.6406 3.16875 L13.6406 5.76562 L18.3469 5.76562 L18.3469 3.16875 Z"/>
   <path style="fill:#212934; fill-rule:nonzero;stroke:none;" transform="translate(50.3531, 1.5375)" d="M14.8031 14.8875 C16.0844 16.1687 17.975 17.45 20.475 18.7312 L19.3219 20.7562 C17.1406 19.7312 15.0906 18.2562 13.1719 16.3312 L14.8031 14.8875 Z M6.44062 16.6219 C5.35312 18.1594 3.6875 19.6656 1.44375 21.1406 L0 19.3125 C2.05 18.0937 3.68437 16.6531 4.90312 14.9906 L6.73125 16.0406 C7.05 16.2969 6.95312 16.4906 6.44062 16.6219 Z M2.50312 14.1187 L2.50312 15.0844 L0.58125 15.0844 L0.58125 1.24687 L2.40937 1.24687 C2.92187 1.30937 2.95312 1.5 2.50312 1.81875 L2.50312 12.3 L20.1844 12.3 L20.1844 14.1187 L11.25 14.1187 L11.25 21.525 L9.0375 21.525 L9.0375 14.1187 L2.50312 14.1187 Z M6.73125 9.50625 L15.0937 9.50625 L15.0937 7.6875 L6.73125 7.6875 L6.73125 9.50625 Z M6.73125 6.15 L15.0937 6.15 L15.0937 4.6125 L6.73125 4.6125 L6.73125 6.15 Z M6.73125 3.075 L15.0937 3.075 L15.0937 1.5375 L6.73125 1.5375 L6.73125 3.075 Z M4.80937 11.0437 L4.80937 0 L17.0156 0 L17.0156 11.0437 L4.80937 11.0437 Z"/>
   <path style="fill:#212934; fill-rule:nonzero;stroke:none;" transform="translate(73.1344, 1.5375)" d="M0 16.8094 C4.1 14.1844 7.30312 11.0469 9.60937 7.39687 L0.571875 7.39687 L0.571875 5.27812 L10.7625 5.27812 L10.7625 0 L12.7781 0 C13.3531 0.125 13.4156 0.38125 12.9656 0.76875 L12.9656 5.27812 L21.0375 5.27812 L21.0375 7.39687 L12.9656 7.39687 L12.9656 18.6375 C12.9656 20.175 12.2312 20.9437 10.7625 20.9437 L8.07187 20.9437 L7.6875 18.8344 L9.60937 18.8344 C10.3781 18.7031 10.7625 18.2844 10.7625 17.5781 L10.7625 9.50625 C8.325 13.0937 5.37812 16.1062 1.92187 18.5437 L0 16.8094 Z"/>
   <path style="fill:#212934; fill-rule:nonzero;stroke:none;" transform="translate(98.2155, 2.69062)" d="M12.1125 9.70312 C12.1125 14.5094 9.86875 17.9687 5.38125 20.0812 L3.45937 18.45 C7.69062 16.525 9.8375 13.5781 9.9 9.60937 L9.9 0 L11.9156 0 C12.5594 0.125 12.625 0.38125 12.1125 0.76875 L12.1125 9.70312 Z M2.2125 11.8125 L0 11.8125 L0 0.95625 L2.11875 0.95625 C2.75625 1.01875 2.7875 1.275 2.2125 1.725 L2.2125 11.8125 Z"/>
   <path style="fill:#212934; fill-rule:nonzero;stroke:none;" transform="translate(115.231, 5.18437)" d="M19.1156 11.625 L19.1156 13.7437 L0 13.7437 L0 11.625 L8.35312 11.625 L8.35312 2.11875 L1.63125 2.11875 L1.63125 0 L17.1937 0 L17.1937 2.11875 L10.5656 2.11875 L10.5656 11.625 L19.1156 11.625 Z"/>
   <path style="fill:#212934; fill-rule:nonzero;stroke:none;" transform="translate(136.928, 3.74062)" d="M18.8344 5.9625 C15.4406 13.0062 9.74062 16.7219 1.73437 17.1094 C1.40937 17.9406 1.0875 18.0062 0.76875 17.3062 L0 14.8031 C8.33125 14.6094 13.9375 11.1812 16.8187 4.51875 L18.8344 5.9625 Z M5.2875 5.9625 C3.55625 4.3625 1.92187 3.05 0.384375 2.025 L2.01562 0 C3.36562 0.8375 5.06562 2.21562 7.11562 4.13437 L5.2875 5.9625 Z"/>
   <path style="fill:#212934; fill-rule:nonzero;stroke:none;" transform="translate(157.606, 3.2625)" d="M9.60937 7.97812 L0 7.97812 L0 5.85937 L19.6969 5.85937 L19.6969 7.97812 L11.8219 7.97812 L11.8219 9.225 C11.8219 13.2625 10.3781 16.5937 7.49062 19.2187 L5.56875 17.7844 C8.2625 15.6656 9.60937 12.8125 9.60937 9.225 L9.60937 7.97812 Z M3.45937 2.11875 L3.45937 0 L16.2375 0 L16.2375 2.11875 L3.45937 2.11875 Z"/>
   <path style="fill:#212934; fill-rule:nonzero;stroke:none;" transform="translate(179.978, 10.8562)" d="M0 2.10937 L0 0 L21.4312 0 L21.4312 2.10937 L0 2.10937 Z"/>
   <path style="fill:#212934; fill-rule:nonzero;stroke:none;" transform="translate(205.225, 2.69062)" d="M12.1125 9.70312 C12.1125 14.5094 9.86875 17.9687 5.38125 20.0812 L3.45937 18.45 C7.69062 16.525 9.8375 13.5781 9.9 9.60937 L9.9 0 L11.9156 0 C12.5594 0.125 12.625 0.38125 12.1125 0.76875 L12.1125 9.70312 Z M2.2125 11.8125 L0 11.8125 L0 0.95625 L2.11875 0.95625 C2.75625 1.01875 2.7875 1.275 2.2125 1.725 L2.2125 11.8125 Z"/>
   <path style="fill:#212934; fill-rule:nonzero;stroke:none;" transform="translate(221.798, 3.74062)" d="M18.8344 5.9625 C15.4406 13.0062 9.74062 16.7219 1.73437 17.1094 C1.40937 17.9406 1.0875 18.0062 0.76875 17.3062 L0 14.8031 C8.33125 14.6094 13.9375 11.1812 16.8187 4.51875 L18.8344 5.9625 Z M5.2875 5.9625 C3.55625 4.3625 1.92187 3.05 0.384375 2.025 L2.01562 0 C3.36562 0.8375 5.06562 2.21562 7.11562 4.13437 L5.2875 5.9625 Z"/>
   <path style="fill:#212934; fill-rule:nonzero;stroke:none;" transform="translate(243.048, 0)" d="M16.6312 7.6875 C15.4125 14.6687 11.4062 19.6656 4.6125 22.6781 L2.8875 20.85 C9.1625 18.2875 12.9406 13.8656 14.2219 7.58437 L6.53437 7.58437 C5.06562 10.0219 3.52812 11.9781 1.92187 13.4531 L0 12.1969 C3.33125 9.19062 5.47812 5.66875 6.44062 1.63125 L8.65312 2.4 C9.03437 2.59375 8.96875 2.78437 8.45625 2.97187 C8.2 3.80937 7.85 4.64375 7.40625 5.475 L14.325 5.475 L15.1875 4.99687 L16.9125 6.72187 C17.3625 7.17187 17.2687 7.49375 16.6312 7.6875 Z M17.2031 5.38125 C16.1781 3.90625 15.1844 2.78437 14.2219 2.01562 L15.4781 0.95625 C16.5656 1.91875 17.5906 3.04062 18.5531 4.32187 L17.2031 5.38125 Z M19.9875 4.22812 C18.9625 2.94687 18.0344 1.92187 17.2031 1.15312 L18.3562 0 C19.3187 0.89375 20.2469 1.91875 21.1406 3.075 L19.9875 4.22812 Z"/>
   <path style="fill:#212934; fill-rule:nonzero;stroke:none;" transform="translate(266.172, 0.8625)" d="M14.6062 0.1875 C15.1187 0.25625 15.1531 0.45 14.7094 0.76875 L14.5125 2.78437 L20.2781 2.78437 L19.9875 6.15 C19.925 7.2375 19.8312 7.975 19.7062 8.3625 C19.3812 9.31875 18.8031 9.79687 17.9719 9.79687 L15.6656 9.79687 L15.375 7.97812 L17.0156 7.97812 C17.6531 7.97812 18.0031 7.625 18.0656 6.91875 L18.2625 4.32187 L14.325 4.32187 C14.0687 6.88437 12.0187 8.90312 8.175 10.3781 L7.20937 8.55 C10.3469 7.4625 12.0125 6.05312 12.2062 4.32187 L8.07187 4.32187 L8.07187 2.78437 L12.4969 2.78437 L12.6844 0.09375 L14.6062 0.1875 Z M10.0969 10.7625 C10.6094 10.825 10.6406 11.0156 10.1906 11.3344 L10.1906 12.7781 L13.9406 12.7781 L13.65 18.7406 C13.5187 20.8531 12.7187 21.9094 11.25 21.9094 L10.2844 21.9094 L9.99375 20.0812 L11.1469 20.0812 C11.5344 20.0812 11.7594 19.7625 11.8219 19.125 L12.1125 14.3156 L10.1906 14.3156 L10.1906 15.2812 C10.1906 18.4812 8.87812 20.7562 6.25312 22.1062 L5.48437 20.3719 C7.53437 19.2844 8.55937 17.5219 8.55937 15.0844 L8.55937 14.3156 L6.6375 14.3156 L6.6375 12.7781 L8.55937 12.7781 L8.55937 10.7625 L10.0969 10.7625 Z M17.7844 10.7625 C18.2969 10.825 18.3281 11.0156 17.8781 11.3344 L17.8781 12.7781 L21.7219 12.7781 L21.525 18.7406 C21.4625 20.8531 20.6937 21.9094 19.2187 21.9094 L17.9719 21.9094 L17.6812 20.0812 L19.0312 20.0812 C19.5437 20.0812 19.8 19.7281 19.8 19.0219 L19.9875 14.3156 L17.8781 14.3156 L17.8781 15.8531 C17.8781 18.5469 16.8531 20.5344 14.8031 21.8156 L13.8375 20.3719 C15.4437 19.4719 16.2469 17.9969 16.2469 15.9469 L16.2469 14.3156 L14.8031 14.3156 L14.8031 12.7781 L16.2469 12.7781 L16.2469 10.7625 L17.7844 10.7625 Z M4.51875 0 C5.03125 0.0625 5.0625 0.253125 4.6125 0.571875 L4.6125 5.76562 L7.11562 5.76562 L7.11562 7.59375 L4.6125 7.59375 L4.6125 21.9094 L2.69062 21.9094 L2.69062 7.59375 L0 7.59375 L0 5.76562 L2.69062 5.76562 L2.69062 0 L4.51875 0 Z"/>
   <path style="fill:#212934; fill-rule:nonzero;stroke:none;" transform="translate(290.678, 1.05)" d="M16.4344 7.5 C14.1906 6.28125 12.3656 4.45625 10.9594 2.025 C9.54687 4.33125 7.9125 6.15625 6.05625 7.5 L16.4344 7.5 Z M20.9531 9.51562 C19.8594 9.25937 18.4156 8.61875 16.6219 7.59375 L16.6219 9.60937 L5.76562 9.60937 L5.76562 7.6875 C4.03437 8.90625 2.4 9.74062 0.8625 10.1906 L0 7.88437 C4.4875 6.66562 7.81875 4.0375 9.99375 0 L12.0094 0.290625 C12.5219 0.353125 12.5562 0.546875 12.1125 0.871875 C14.1625 3.94687 17.4281 6.05937 21.9094 7.20937 L20.9531 9.51562 Z M18.8344 21.7219 C18.3219 21.0156 17.7125 20.3437 17.0062 19.7062 L3.075 21.2437 C2.75625 21.5625 2.46875 21.625 2.2125 21.4312 L1.5375 19.0312 L5.475 18.8344 L8.16562 13.9406 L1.24687 13.9406 L1.24687 11.8219 L20.9531 11.8219 L20.9531 13.9406 L10.575 13.9406 L7.6875 18.7406 L15.5719 18.1687 C14.7344 17.4 13.8031 16.6312 12.7781 15.8625 L14.5125 14.7094 C17.5875 17.0156 19.7 18.9375 20.85 20.475 L18.8344 21.7219 Z"/>
  </g>
  <g style="fill:none; stroke:none" transform="translate(424.833, 251.125) scale(1, 1)" id="グループ2">
   <path style="fill:#212934; fill-rule:nonzero;stroke:none;" transform="translate(0, 0.63384)" d="M8.15918 7.91998 C8.15918 8.65745 7.96199 9.29959 7.5676 9.84641 C7.17321 10.3927 6.62011 10.7999 5.9083 11.0681 C5.19699 11.3362 4.3413 11.4702 3.34124 11.4702 C2.18071 11.4702 1.11853 11.2743 0.154687 10.8824 L0.154687 7.84302 C0.618497 8.18308 1.13135 8.45774 1.69326 8.66701 C2.25567 8.87578 2.77909 8.98016 3.26352 8.98016 C3.62974 8.98016 3.91321 8.91451 4.11392 8.78321 C4.31514 8.65142 4.41575 8.45925 4.41575 8.20672 C4.41575 8.02613 4.36545 7.86767 4.26484 7.73134 C4.16473 7.59451 4.01281 7.46674 3.80908 7.34802 C3.60534 7.2293 3.22755 7.06682 2.67571 6.86057 C0.891904 6.17491 0 5.06645 0 3.53517 C0 2.46267 0.407217 1.60548 1.22165 0.963588 C2.03659 0.321196 3.12971 0 4.50102 0 C4.88786 0 5.24352 0.0155945 5.56798 0.0467834 C5.89295 0.0774694 6.18824 0.116204 6.45385 0.162987 C6.71946 0.209268 7.09197 0.296798 7.57137 0.425578 L7.57137 3.24843 C6.63822 2.73834 5.72041 2.4833 4.81794 2.4833 C4.44669 2.4833 4.14763 2.55297 3.92075 2.69231 C3.69388 2.83115 3.58044 3.02181 3.58044 3.26428 C3.58044 3.49618 3.672 3.68835 3.85511 3.84077 C4.03822 3.99269 4.42104 4.18989 5.00356 4.43235 C6.15353 4.89616 6.96696 5.40399 7.44385 5.95583 C7.92074 6.50768 8.15918 7.16239 8.15918 7.91998 Z"/>
   <path style="fill:#212934; fill-rule:nonzero;stroke:none;" transform="translate(9.48454, 0.819465)" d="M7.17749 11.0914 L7.17749 6.95338 L3.34124 6.95338 L3.34124 11.0914 L0 11.0914 L0 0 L3.34124 0 L3.34124 4.10713 L7.17749 4.10713 L7.17749 0 L10.5187 0 L10.5187 11.0914 L7.17749 11.0914 Z"/>
   <path style="fill:#212934; fill-rule:nonzero;stroke:none;" transform="translate(22.1565, 0.819465)" d="M0 11.0914 L0 0 L3.34124 0 L3.34124 11.0914 L0 11.0914 Z"/>
   <path style="fill:#212934; fill-rule:nonzero;stroke:none;" transform="translate(27.0818, 0.63384)" d="M10.3331 10.5497 C9.91558 10.7871 9.2918 10.9999 8.46177 11.188 C7.63174 11.3762 6.84019 11.4702 6.08713 11.4702 C4.14335 11.4702 2.64276 10.9843 1.58536 10.0124 C0.528452 9.04052 0 7.67802 0 5.9249 C0 4.74927 0.266867 3.7052 0.800601 2.79267 C1.33433 1.87964 2.08589 1.18594 3.05526 0.711561 C4.02463 0.237187 5.1668 0 6.48177 0 C7.44611 0 8.47485 0.136829 9.56797 0.410487 L9.56797 3.32615 C9.05738 3.09425 8.56741 2.93327 8.09806 2.84323 C7.62872 2.75268 7.11561 2.7074 6.55874 2.7074 C5.64118 2.7074 4.91025 2.98332 4.36595 3.53517 C3.82216 4.08651 3.55026 4.84435 3.55026 5.80869 C3.55026 6.73179 3.77839 7.45366 4.23466 7.97431 C4.69092 8.49497 5.32904 8.7553 6.149 8.7553 C6.53082 8.7553 6.81177 8.73467 6.99186 8.69342 L6.99186 7.10807 L4.86548 7.10807 L4.86548 4.57874 L10.3331 4.57874 L10.3331 10.5497 Z"/>
   <path style="fill:#212934; fill-rule:nonzero;stroke:none;" transform="translate(38.282, 0.819465)" d="M7.93508 11.0914 L7.44762 9.04958 L4.13732 9.04958 L3.61138 11.0914 L0 11.0914 L3.8204 0 L7.96601 0 L11.5623 11.0914 L7.93508 11.0914 Z M5.83133 2.41312 L5.75436 2.41312 C5.7438 2.53687 5.70758 2.7406 5.64571 3.02432 C5.58383 3.30804 5.27194 4.52491 4.71004 6.67494 L6.82887 6.67494 L6.05544 3.65892 C5.94728 3.21523 5.87258 2.79996 5.83133 2.41312 Z"/>
   <path style="fill:#212934; fill-rule:nonzero;stroke:none;" transform="translate(55.4205, 0.819465)" d="M9.06467 3.65892 C9.06467 4.41651 8.87251 5.08933 8.48818 5.6774 C8.10435 6.26496 7.55653 6.71996 6.84472 7.04242 C6.13341 7.36487 5.3059 7.5261 4.36218 7.5261 L3.34124 7.5261 L3.34124 11.0914 L0 11.0914 L0 0 L4.5478 0 C6.11027 0 7.2537 0.296547 7.97809 0.88964 C8.70248 1.48273 9.06467 2.40583 9.06467 3.65892 Z M5.53026 3.77437 C5.53026 3.32062 5.39871 2.97779 5.13561 2.74589 C4.87302 2.51398 4.48643 2.39803 3.97584 2.39803 L3.34124 2.39803 L3.34124 5.13561 L4.09204 5.13561 C5.05085 5.13561 5.53026 4.68187 5.53026 3.77437 Z"/>
   <path style="fill:#212934; fill-rule:nonzero;stroke:none;" transform="translate(65.5738, 3.85133)" d="M5.95508 2.96245 C5.83133 2.9056 5.66382 2.85404 5.45254 2.80776 C5.24125 2.76148 5.06594 2.73834 4.9266 2.73834 C3.83851 2.73834 3.29446 3.3674 3.29446 4.62552 L3.29446 8.05958 L0 8.05958 L0 0.139596 L3.29446 0.139596 L3.29446 1.53178 L3.3254 1.53178 C3.52662 1.03175 3.81285 0.651447 4.1841 0.390868 C4.55535 0.130289 4.98847 0 5.48347 0 C5.66407 0 5.82127 0.0309374 5.95508 0.0928123 L5.95508 2.96245 Z"/>
   <path style="fill:#212934; fill-rule:nonzero;stroke:none;" transform="translate(72.1947, 3.79776)" d="M3.18656 5.08883 C3.2434 5.42939 3.43934 5.69626 3.77437 5.88943 C4.1099 6.0826 4.55334 6.17919 5.10468 6.17919 C5.87333 6.17919 6.60049 6.0323 7.28614 5.73852 L7.28614 7.82717 C6.4868 8.14661 5.51743 8.30633 4.37802 8.30633 C2.99615 8.30633 1.92089 7.95319 1.15223 7.24691 C0.384077 6.54063 0 5.56874 0 4.33124 C0 3.48008 0.168773 2.72979 0.506318 2.08035 C0.844366 1.43042 1.34465 0.921332 2.00716 0.553101 C2.66967 0.184367 3.4006 0 4.19995 0 C5.01991 0 5.72116 0.159969 6.30369 0.479908 C6.88622 0.799343 7.3284 1.24781 7.63023 1.82531 C7.93206 2.40281 8.08297 3.07815 8.08297 3.85133 L8.08297 5.08883 L3.18656 5.08883 Z M5.16655 3.36388 C5.16655 2.45135 4.83932 1.99509 4.18485 1.99509 C3.9112 1.99509 3.68156 2.12009 3.49593 2.37011 C3.31031 2.62012 3.20215 2.95138 3.17146 3.36388 L5.16655 3.36388 Z"/>
   <path style="fill:#212934; fill-rule:nonzero;stroke:none;" transform="translate(80.8644, 0)" d="M6.65155 2.5829 C6.31099 2.46468 5.99381 2.40557 5.70003 2.40557 C5.33382 2.40557 5.06292 2.49964 4.88736 2.68778 C4.7123 2.87592 4.62477 3.12971 4.62477 3.44915 L4.62477 3.99093 L6.45838 3.99093 L6.45838 6.27275 L4.62477 6.27275 L4.62477 11.9109 L1.33031 11.9109 L1.33031 6.27275 L0 6.27275 L0 3.99093 L1.33031 3.99093 L1.33031 3.26352 C1.33031 2.61912 1.47972 2.05067 1.77853 1.55819 C2.07784 1.06571 2.51222 0.682887 3.08167 0.409732 C3.65162 0.136577 4.34407 0 5.15901 0 C5.74657 0 6.24408 0.0565929 6.65155 0.169779 L6.65155 2.5829 Z"/>
   <path style="fill:#212934; fill-rule:nonzero;stroke:none;" transform="translate(88.1321, 9.01034)" d="M3.67325 1.52348 C3.67325 1.99282 3.50826 2.37187 3.17826 2.66062 C2.84826 2.94937 2.39199 3.09374 1.80946 3.09374 C1.27824 3.09374 0.843863 2.94308 0.506318 2.64176 C0.168773 2.33993 0 1.96717 0 1.52348 C0 1.06973 0.166257 0.702506 0.498772 0.421806 C0.831286 0.140602 1.2785 0 1.8404 0 C2.38721 0 2.82939 0.140602 3.16694 0.421806 C3.50448 0.702506 3.67325 1.06973 3.67325 1.52348 Z"/>
   <path style="fill:#212934; fill-rule:nonzero;stroke:none;" transform="translate(97.0944, 0.63384)" d="M11.1684 5.70079 C11.1684 6.81454 10.9287 7.81107 10.4493 8.6904 C9.9699 9.56923 9.29959 10.2524 8.43838 10.7398 C7.57716 11.2268 6.61307 11.4702 5.5461 11.4702 C4.50429 11.4702 3.55655 11.2343 2.70288 10.7625 C1.84971 10.2906 1.18594 9.62808 0.711561 8.77491 C0.237187 7.92175 0 6.95614 0 5.87811 C0 4.74927 0.239702 3.73362 0.719107 2.83115 C1.19901 1.92869 1.87209 1.23121 2.73834 0.738726 C3.60459 0.246242 4.58931 0 5.69249 0 C6.75493 0 7.70493 0.235929 8.54251 0.707788 C9.38058 1.17965 10.0278 1.85273 10.484 2.72702 C10.9403 3.60082 11.1684 4.59207 11.1684 5.70079 Z M7.62646 5.7936 C7.62646 4.88057 7.45114 4.16121 7.10052 3.63553 C6.7499 3.10934 6.27024 2.84624 5.66155 2.84624 C4.99652 2.84624 4.47838 3.09903 4.10713 3.60459 C3.73588 4.10965 3.55026 4.82373 3.55026 5.74682 C3.55026 6.64929 3.73463 7.3533 4.10336 7.85886 C4.47209 8.36392 4.97363 8.61645 5.60798 8.61645 C5.99432 8.61645 6.34218 8.50302 6.65155 8.27614 C6.96092 8.04927 7.20063 7.72455 7.37066 7.30199 C7.54119 6.87893 7.62646 6.37613 7.62646 5.7936 Z"/>
   <path style="fill:#212934; fill-rule:nonzero;stroke:none;" transform="translate(109.752, 0.819465)" d="M5.75436 11.0914 L4.92735 8.70172 C4.76738 8.23238 4.55963 7.86364 4.30408 7.59552 C4.04903 7.32739 3.7721 7.19333 3.47329 7.19333 L3.34124 7.19333 L3.34124 11.0914 L0 11.0914 L0 0 L4.4399 0 C5.9918 0 7.13775 0.254039 7.87773 0.762117 C8.61771 1.2702 8.9877 2.03206 8.9877 3.04772 C8.9877 3.81084 8.7724 4.45021 8.34179 4.96584 C7.91118 5.48146 7.27055 5.85522 6.4199 6.08713 L6.4199 6.11807 C6.88924 6.26244 7.27986 6.49711 7.59175 6.82208 C7.90364 7.14705 8.18333 7.62922 8.43083 8.2686 L9.52119 11.0914 L5.75436 11.0914 Z M5.43744 3.51932 C5.43744 3.14807 5.32401 2.85429 5.09713 2.63798 C4.87026 2.42117 4.5146 2.31276 4.03017 2.31276 L3.34124 2.31276 L3.34124 4.84963 L3.9449 4.84963 C4.39362 4.84963 4.75456 4.72337 5.02771 4.47084 C5.30087 4.21831 5.43744 3.90114 5.43744 3.51932 Z"/>
   <path style="fill:#212934; fill-rule:nonzero;stroke:none;" transform="translate(120.523, 0.819465)" d="M0 11.0914 L0 0 L3.34124 0 L3.34124 11.0914 L0 11.0914 Z"/>
   <path style="fill:#212934; fill-rule:nonzero;stroke:none;" transform="translate(126.067, 0.819465)" d="M0 11.0914 L0 0 L6.90735 0 L6.90735 2.61459 L3.34124 2.61459 L3.34124 4.23088 L6.69079 4.23088 L6.69079 6.84547 L3.34124 6.84547 L3.34124 8.47686 L7.16239 8.47686 L7.16239 11.0914 L0 11.0914 Z"/>
   <path style="fill:#212934; fill-rule:nonzero;stroke:none;" transform="translate(134.779, 0.819465)" d="M7.75021 11.0914 L3.83624 5.73927 C3.52687 5.31621 3.27434 4.93465 3.07865 4.59459 L3.04772 4.59459 C3.0784 5.1409 3.09374 5.75436 3.09374 6.43499 L3.09374 11.0914 L0 11.0914 L0 0 L3.15562 0 L6.90735 5.08959 C6.95363 5.15649 7.01022 5.23648 7.07713 5.32954 C7.14403 5.4221 7.21094 5.51743 7.27784 5.61552 C7.34525 5.71362 7.40864 5.8092 7.468 5.90226 C7.52736 5.99482 7.57238 6.07707 7.60306 6.149 L7.634 6.149 C7.60332 5.92213 7.58797 5.53026 7.58797 4.97338 L7.58797 0 L10.6817 0 L10.6817 11.0914 L7.75021 11.0914 Z"/>
   <path style="fill:#212934; fill-rule:nonzero;stroke:none;" transform="translate(146.917, 0.819465)" d="M6.45838 2.61459 L6.45838 11.0914 L3.10129 11.0914 L3.10129 2.61459 L0 2.61459 L0 0 L9.59815 0 L9.59815 2.61459 L6.45838 2.61459 Z"/>
   <path style="fill:#212934; fill-rule:nonzero;stroke:none;" transform="translate(157.747, 0.819465)" d="M0 11.0914 L0 0 L6.90735 0 L6.90735 2.61459 L3.34124 2.61459 L3.34124 4.23088 L6.69079 4.23088 L6.69079 6.84547 L3.34124 6.84547 L3.34124 8.47686 L7.16239 8.47686 L7.16239 11.0914 L0 11.0914 Z"/>
   <path style="fill:#212934; fill-rule:nonzero;stroke:none;" transform="translate(166.459, 0.819465)" d="M0 11.0914 L0 0 L6.90735 0 L6.90735 2.61459 L3.34124 2.61459 L3.34124 4.23088 L6.69079 4.23088 L6.69079 6.84547 L3.34124 6.84547 L3.34124 8.47686 L7.16239 8.47686 L7.16239 11.0914 L0 11.0914 Z"/>
   <path style="fill:#212934; fill-rule:nonzero;stroke:none;" transform="translate(175.171, 0.819465)" d="M5.75436 11.0914 L4.92735 8.70172 C4.76738 8.23238 4.55963 7.86364 4.30408 7.59552 C4.04903 7.32739 3.7721 7.19333 3.47329 7.19333 L3.34124 7.19333 L3.34124 11.0914 L0 11.0914 L0 0 L4.4399 0 C5.9918 0 7.13775 0.254039 7.87773 0.762117 C8.61771 1.2702 8.9877 2.03206 8.9877 3.04772 C8.9877 3.81084 8.7724 4.45021 8.34179 4.96584 C7.91118 5.48146 7.27055 5.85522 6.4199 6.08713 L6.4199 6.11807 C6.88924 6.26244 7.27986 6.49711 7.59175 6.82208 C7.90364 7.14705 8.18333 7.62922 8.43083 8.2686 L9.52119 11.0914 L5.75436 11.0914 Z M5.43744 3.51932 C5.43744 3.14807 5.32401 2.85429 5.09713 2.63798 C4.87026 2.42117 4.5146 2.31276 4.03017 2.31276 L3.34124 2.31276 L3.34124 4.84963 L3.9449 4.84963 C4.39362 4.84963 4.75456 4.72337 5.02771 4.47084 C5.30087 4.21831 5.43744 3.90114 5.43744 3.51932 Z"/>
   <path style="fill:#212934; fill-rule:nonzero;stroke:none;" transform="translate(185.783, 0.819465)" d="M0 11.0914 L0 0 L3.34124 0 L3.34124 11.0914 L0 11.0914 Z"/>
   <path style="fill:#212934; fill-rule:nonzero;stroke:none;" transform="translate(191.327, 0.819465)" d="M7.75021 11.0914 L3.83624 5.73927 C3.52687 5.31621 3.27434 4.93465 3.07865 4.59459 L3.04772 4.59459 C3.0784 5.1409 3.09374 5.75436 3.09374 6.43499 L3.09374 11.0914 L0 11.0914 L0 0 L3.15562 0 L6.90735 5.08959 C6.95363 5.15649 7.01022 5.23648 7.07713 5.32954 C7.14403 5.4221 7.21094 5.51743 7.27784 5.61552 C7.34525 5.71362 7.40864 5.8092 7.468 5.90226 C7.52736 5.99482 7.57238 6.07707 7.60306 6.149 L7.634 6.149 C7.60332 5.92213 7.58797 5.53026 7.58797 4.97338 L7.58797 0 L10.6817 0 L10.6817 11.0914 L7.75021 11.0914 Z"/>
   <path style="fill:#212934; fill-rule:nonzero;stroke:none;" transform="translate(203.539, 0.63384)" d="M10.3331 10.5497 C9.91558 10.7871 9.2918 10.9999 8.46177 11.188 C7.63174 11.3762 6.84019 11.4702 6.08713 11.4702 C4.14335 11.4702 2.64276 10.9843 1.58536 10.0124 C0.528452 9.04052 0 7.67802 0 5.9249 C0 4.74927 0.266867 3.7052 0.800601 2.79267 C1.33433 1.87964 2.08589 1.18594 3.05526 0.711561 C4.02463 0.237187 5.1668 0 6.48177 0 C7.44611 0 8.47485 0.136829 9.56797 0.410487 L9.56797 3.32615 C9.05738 3.09425 8.56741 2.93327 8.09806 2.84323 C7.62872 2.75268 7.11561 2.7074 6.55874 2.7074 C5.64118 2.7074 4.91025 2.98332 4.36595 3.53517 C3.82216 4.08651 3.55026 4.84435 3.55026 5.80869 C3.55026 6.73179 3.77839 7.45366 4.23466 7.97431 C4.69092 8.49497 5.32904 8.7553 6.149 8.7553 C6.53082 8.7553 6.81177 8.73467 6.99186 8.69342 L6.99186 7.10807 L4.86548 7.10807 L4.86548 4.57874 L10.3331 4.57874 L10.3331 10.5497 Z"/>
   <path style="fill:#212934; fill-rule:nonzero;stroke:none;" transform="translate(218.699, 0.819465)" d="M7.93508 11.0914 L7.44762 9.04958 L4.13732 9.04958 L3.61138 11.0914 L0 11.0914 L3.8204 0 L7.96601 0 L11.5623 11.0914 L7.93508 11.0914 Z M5.83133 2.41312 L5.75436 2.41312 C5.7438 2.53687 5.70758 2.7406 5.64571 3.02432 C5.58383 3.30804 5.27194 4.52491 4.71004 6.67494 L6.82887 6.67494 L6.05544 3.65892 C5.94728 3.21523 5.87258 2.79996 5.83133 2.41312 Z"/>
   <path style="fill:#212934; fill-rule:nonzero;stroke:none;" transform="translate(231.213, 3.79776)" d="M6.48177 5.48347 C6.48177 6.38041 6.13995 7.07512 5.45631 7.5676 C4.77317 8.06008 3.82065 8.30633 2.59874 8.30633 C2.24309 8.30633 1.80343 8.27011 1.27975 8.19767 C0.756584 8.12573 0.329999 8.0382 0 7.93508 L0 5.62231 C0.974404 6.05544 1.78909 6.272 2.44406 6.272 C3.08846 6.272 3.41066 6.10448 3.41066 5.76946 C3.41066 5.63011 3.33596 5.51542 3.18656 5.42537 C3.03715 5.33532 2.64528 5.18441 2.01093 4.97263 C1.30968 4.75129 0.799091 4.45751 0.479153 4.09129 C0.159718 3.72507 0 3.24818 0 2.66062 C0 1.84065 0.325975 1.19222 0.977925 0.715334 C1.63038 0.238445 2.54718 0 3.72834 0 C4.41902 0 5.15121 0.100358 5.9249 0.301074 L5.9249 2.52102 C5.59993 2.38168 5.24402 2.26573 4.85718 2.17317 C4.47033 2.0801 4.14562 2.03357 3.88303 2.03357 C3.66621 2.03357 3.49342 2.06979 3.36464 2.14223 C3.23585 2.21416 3.17146 2.31477 3.17146 2.44406 C3.17146 2.59346 3.24089 2.7147 3.37973 2.80776 C3.51907 2.90032 3.79751 3.01099 4.21504 3.13977 C5.02494 3.37721 5.60521 3.68156 5.95583 4.0528 C6.30646 4.42405 6.48177 4.90094 6.48177 5.48347 Z"/>
   <path style="fill:#212934; fill-rule:nonzero;stroke:none;" transform="translate(238.975, 3.79776)" d="M6.48177 5.48347 C6.48177 6.38041 6.13995 7.07512 5.45631 7.5676 C4.77317 8.06008 3.82065 8.30633 2.59874 8.30633 C2.24309 8.30633 1.80343 8.27011 1.27975 8.19767 C0.756584 8.12573 0.329999 8.0382 0 7.93508 L0 5.62231 C0.974404 6.05544 1.78909 6.272 2.44406 6.272 C3.08846 6.272 3.41066 6.10448 3.41066 5.76946 C3.41066 5.63011 3.33596 5.51542 3.18656 5.42537 C3.03715 5.33532 2.64528 5.18441 2.01093 4.97263 C1.30968 4.75129 0.799091 4.45751 0.479153 4.09129 C0.159718 3.72507 0 3.24818 0 2.66062 C0 1.84065 0.325975 1.19222 0.977925 0.715334 C1.63038 0.238445 2.54718 0 3.72834 0 C4.41902 0 5.15121 0.100358 5.9249 0.301074 L5.9249 2.52102 C5.59993 2.38168 5.24402 2.26573 4.85718 2.17317 C4.47033 2.0801 4.14562 2.03357 3.88303 2.03357 C3.66621 2.03357 3.49342 2.06979 3.36464 2.14223 C3.23585 2.21416 3.17146 2.31477 3.17146 2.44406 C3.17146 2.59346 3.24089 2.7147 3.37973 2.80776 C3.51907 2.90032 3.79751 3.01099 4.21504 3.13977 C5.02494 3.37721 5.60521 3.68156 5.95583 4.0528 C6.30646 4.42405 6.48177 4.90094 6.48177 5.48347 Z"/>
   <path style="fill:#212934; fill-rule:nonzero;stroke:none;" transform="translate(246.276, 3.79776)" d="M9.15748 4.01357 C9.15748 5.34916 8.75404 6.39852 7.94715 7.16164 C7.14026 7.92476 6.01243 8.30633 4.56365 8.30633 C3.12493 8.30633 2.00465 7.93382 1.20279 7.1888 C0.400929 6.44379 0 5.41632 0 4.10638 C0 3.26629 0.18814 2.53687 0.56442 1.91812 C0.941202 1.29937 1.47745 0.824998 2.17317 0.494999 C2.86938 0.165 3.67124 0 4.57874 0 C5.51743 0 6.33086 0.172797 7.01903 0.518391 C7.7077 0.863482 8.23615 1.34289 8.60438 1.9566 C8.97312 2.57032 9.15748 3.25598 9.15748 4.01357 Z M5.81624 4.02941 C5.81624 2.95188 5.40374 2.41312 4.57874 2.41312 C3.75374 2.41312 3.34124 2.97754 3.34124 4.10638 C3.34124 5.2976 3.75902 5.8932 4.59459 5.8932 C5.40902 5.8932 5.81624 5.27194 5.81624 4.02941 Z"/>
   <path style="fill:#212934; fill-rule:nonzero;stroke:none;" transform="translate(256.414, 3.79776)" d="M6.87641 7.88905 C6.66463 8.0128 6.33186 8.11315 5.87811 8.19012 C5.42436 8.26759 4.90119 8.30633 4.3086 8.30633 C3.47304 8.30633 2.72652 8.13755 2.06904 7.80001 C1.41155 7.46196 0.902216 6.98884 0.541028 6.38066 C0.180343 5.77197 0 5.08883 0 4.33124 C0 3.42374 0.192164 2.64653 0.576493 1.99961 C0.960821 1.35219 1.50864 0.857193 2.21995 0.514618 C2.93176 0.171539 3.75676 0 4.69495 0 C5.21057 0 5.67337 0.0334527 6.08336 0.100358 C6.49334 0.167263 6.75769 0.244481 6.87641 0.332012 L6.87641 2.89982 C6.71141 2.77104 6.47423 2.65785 6.16485 2.56026 C5.85548 2.46217 5.56924 2.41312 5.30615 2.41312 C4.66174 2.41312 4.17303 2.56655 3.84002 2.87341 C3.5075 3.17977 3.34124 3.61138 3.34124 4.16825 C3.34124 4.71507 3.50499 5.13939 3.83247 5.44122 C4.15995 5.74254 4.60993 5.8932 5.1824 5.8932 C5.79612 5.8932 6.36079 5.74631 6.87641 5.45254 L6.87641 7.88905 Z"/>
   <path style="fill:#212934; fill-rule:nonzero;stroke:none;" transform="translate(264.338, 0.332766)" d="M3.67325 1.52348 C3.67325 1.98729 3.50448 2.36357 3.16694 2.65232 C2.82939 2.94107 2.3847 3.08544 1.83285 3.08544 C1.29661 3.08544 0.856942 2.93604 0.513863 2.63723 C0.171288 2.33791 0 1.96667 0 1.52348 C0 1.06973 0.166257 0.702506 0.498772 0.421806 C0.831286 0.140602 1.27598 0 1.83285 0 C2.3847 0 2.82939 0.140602 3.16694 0.421806 C3.50448 0.702506 3.67325 1.06973 3.67325 1.52348 Z M0.185625 11.5781 L0.185625 3.65816 L3.48008 3.65816 L3.48008 11.5781 L0.185625 11.5781 Z"/>
   <path style="fill:#212934; fill-rule:nonzero;stroke:none;" transform="translate(268.993, 3.79776)" d="M4.83454 8.11315 L4.83454 6.90659 L4.8036 6.90659 C4.27742 7.83975 3.47304 8.30633 2.39048 8.30633 C1.64245 8.30633 1.0569 8.08473 0.63384 7.64155 C0.21128 7.19786 0 6.60477 0 5.86227 C0 4.30533 0.956545 3.40312 2.86964 3.15562 L4.83454 2.89982 C4.83454 2.64226 4.71834 2.43098 4.48593 2.26598 C4.25402 2.10098 3.94213 2.01848 3.55026 2.01848 C2.66339 2.01848 1.72747 2.27101 0.742499 2.77607 L0.742499 0.63384 C1.17059 0.448216 1.70684 0.296295 2.35125 0.178079 C2.99615 0.0593596 3.548 0 4.00678 0 C5.35243 0 6.32809 0.287492 6.93376 0.862475 C7.53993 1.43696 7.84302 2.39727 7.84302 3.74343 L7.84302 8.11315 L4.83454 8.11315 Z M2.88548 5.4216 C2.88548 5.63791 2.95365 5.81574 3.08997 5.95508 C3.2268 6.09442 3.42148 6.1641 3.67401 6.1641 C4.0196 6.1641 4.2993 6.03532 4.51309 5.77776 C4.72739 5.51969 4.83454 5.18944 4.83454 4.787 L4.83454 4.48593 L3.72079 4.64062 C3.16392 4.73318 2.88548 4.9935 2.88548 5.4216 Z"/>
   <path style="fill:#212934; fill-rule:nonzero;stroke:none;" transform="translate(277.739, 1.53933)" d="M6.14146 10.2629 C5.99205 10.3354 5.74707 10.4038 5.40651 10.4682 C5.06645 10.5326 4.65646 10.5648 4.17655 10.5648 C3.259 10.5648 2.54115 10.3122 2.02301 9.80717 C1.50487 9.30161 1.2458 8.58225 1.2458 7.64909 L1.2458 4.73343 L0 4.73343 L0 2.4516 L1.2458 2.4516 L1.2458 0.897186 L4.49423 0 L4.49423 2.4516 L6.14146 2.4516 L6.14146 4.73343 L4.49423 4.73343 L4.49423 7.10731 C4.49423 7.80353 4.7699 8.15164 5.32124 8.15164 C5.5793 8.15164 5.85271 8.09505 6.14146 7.98186 L6.14146 10.2629 Z"/>
   <path style="fill:#212934; fill-rule:nonzero;stroke:none;" transform="translate(284.772, 0.332766)" d="M3.67325 1.52348 C3.67325 1.98729 3.50448 2.36357 3.16694 2.65232 C2.82939 2.94107 2.3847 3.08544 1.83285 3.08544 C1.29661 3.08544 0.856942 2.93604 0.513863 2.63723 C0.171288 2.33791 0 1.96667 0 1.52348 C0 1.06973 0.166257 0.702506 0.498772 0.421806 C0.831286 0.140602 1.27598 0 1.83285 0 C2.3847 0 2.82939 0.140602 3.16694 0.421806 C3.50448 0.702506 3.67325 1.06973 3.67325 1.52348 Z M0.185625 11.5781 L0.185625 3.65816 L3.48008 3.65816 L3.48008 11.5781 L0.185625 11.5781 Z"/>
   <path style="fill:#212934; fill-rule:nonzero;stroke:none;" transform="translate(289.519, 3.79776)" d="M9.15748 4.01357 C9.15748 5.34916 8.75404 6.39852 7.94715 7.16164 C7.14026 7.92476 6.01243 8.30633 4.56365 8.30633 C3.12493 8.30633 2.00465 7.93382 1.20279 7.1888 C0.400929 6.44379 0 5.41632 0 4.10638 C0 3.26629 0.18814 2.53687 0.56442 1.91812 C0.941202 1.29937 1.47745 0.824998 2.17317 0.494999 C2.86938 0.165 3.67124 0 4.57874 0 C5.51743 0 6.33086 0.172797 7.01903 0.518391 C7.7077 0.863482 8.23615 1.34289 8.60438 1.9566 C8.97312 2.57032 9.15748 3.25598 9.15748 4.01357 Z M5.81624 4.02941 C5.81624 2.95188 5.40374 2.41312 4.57874 2.41312 C3.75374 2.41312 3.34124 2.97754 3.34124 4.10638 C3.34124 5.2976 3.75902 5.8932 4.59459 5.8932 C5.40902 5.8932 5.81624 5.27194 5.81624 4.02941 Z"/>
   <path style="fill:#212934; fill-rule:nonzero;stroke:none;" transform="translate(299.847, 3.79776)" d="M5.13561 8.11315 L5.13561 3.78946 C5.13561 3.29949 5.06192 2.94761 4.91453 2.73381 C4.76764 2.52002 4.52919 2.41312 4.19919 2.41312 C3.91598 2.41312 3.69438 2.52404 3.53441 2.74589 C3.37444 2.96723 3.29446 3.25069 3.29446 3.59629 L3.29446 8.11315 L0 8.11315 L0 0.19317 L3.29446 0.19317 L3.29446 1.43067 L3.3254 1.43067 C3.58849 0.976919 3.94163 0.625037 4.38482 0.375022 C4.8285 0.125007 5.31068 0 5.83133 0 C7.56383 0 8.43007 1.09312 8.43007 3.27937 L8.43007 8.11315 L5.13561 8.11315 Z"/>
  </g>
  <path style="fill:#ffffff; fill-rule:evenodd;stroke:none;" transform="translate(192.24, 0)" d="M0 0 L95.4 0 L95.4 473.52 L0 473.52 L0 0 Z"/>
  <path style="fill:#ff0000; fill-rule:evenodd;stroke:none;" transform="translate(192.24, 190.08)" d="M95.4 93.48 L0 93.48 L95.4 0 L95.4 93.48 Z"/>
  <path style="fill:#212934; fill-rule:evenodd;stroke:none;" transform="translate(175.92, 0)" d="M0 0 L7.44 0 L7.44 473.52 L0 473.52 L0 0 Z M120.72 0 L128.16 0 L128.16 473.52 L120.72 473.52 L120.72 0 Z"/>
  <path style="fill:#212934; fill-rule:evenodd;stroke:none;" transform="translate(0, 174.72)" d="M0 0 L841.92 0 L841.92 7.32 L0 7.32 L0 0 Z M0 117 L841.92 117 L841.92 124.32 L0 124.32 L0 117 Z"/>
  <path style="fill:#212934; fill-rule:evenodd;stroke:none;" transform="translate(159.48, 0)" d="M0 0 L7.44 0 L7.44 473.52 L0 473.52 L0 0 Z M153.48 0 L160.92 0 L160.92 473.52 L153.48 473.52 L153.48 0 Z"/>
  <path style="fill:#212934; fill-rule:evenodd;stroke:none;" transform="translate(0, 159.24)" d="M0 0 L841.92 0 L841.92 7.32 L0 7.32 L0 0 Z M0 147.48 L841.92 147.48 L841.92 154.8 L0 154.8 L0 147.48 Z"/>
 </g>
</svg>
